<svg width="25" height="25" viewBox="0 0 25 25" fill="none" xmlns="http://www.w3.org/2000/svg">
<path d="M11.6151 4.70312H4.61514C4.08471 4.70313 3.576 4.91384 3.20093 5.28891C2.82586 5.66398 2.61514 6.17269 2.61514 6.70312V20.7031C2.61514 21.2336 2.82586 21.7423 3.20093 22.1173C3.576 22.4924 4.08471 22.7031 4.61514 22.7031H18.6151C19.1456 22.7031 19.6543 22.4924 20.0294 22.1173C20.4044 21.7423 20.6151 21.2336 20.6151 20.7031V13.7031" stroke="white" stroke-width="2" stroke-linecap="round" stroke-linejoin="round"/>
<path d="M19.1151 3.20335C19.513 2.80553 20.0525 2.58203 20.6151 2.58203C21.1778 2.58203 21.7173 2.80553 22.1151 3.20335C22.513 3.60118 22.7365 4.14074 22.7365 4.70335C22.7365 5.26596 22.513 5.80553 22.1151 6.20335L12.6151 15.7034L8.61514 16.7034L9.61514 12.7034L19.1151 3.20335Z" stroke="white" stroke-width="2" stroke-linecap="round" stroke-linejoin="round"/>
</svg>
