<svg width="20" height="20" viewBox="0 0 20 20" fill="none" xmlns="http://www.w3.org/2000/svg">
<g clip-path="url(#clip0)">
<path d="M19.3156 5.41238L14.2203 0.117891C14.1478 0.0425781 14.0477 0 13.9432 0H6.34902C5.49913 0 4.80769 0.691172 4.80769 1.5407V6.92309H1.73007C1.09421 6.92309 0.576904 7.44023 0.576904 8.07594V13.8472C0.576904 14.4829 1.09421 15 1.73007 15H4.80769V18.462C4.80769 19.31 5.49913 20 6.34902 20H17.8818C18.7316 20 19.4231 19.3104 19.4231 18.4629V5.6791C19.4231 5.57965 19.3845 5.48406 19.3156 5.41238ZM14.0385 1.03832L18.2213 5.38461H14.0385V1.03832ZM1.73007 14.2308C1.51835 14.2308 1.34616 14.0587 1.34616 13.8472V8.07594C1.34616 7.86441 1.51839 7.6923 1.73007 7.6923H12.1161C12.3278 7.6923 12.5 7.86441 12.5 8.07594V13.8472C12.5 14.0587 12.3278 14.2308 12.1161 14.2308H1.73007ZM18.6538 18.4629C18.6538 18.8863 18.3075 19.2308 17.8817 19.2308H6.34902C5.92328 19.2308 5.57691 18.8859 5.57691 18.462V15H12.1161C12.752 15 13.2693 14.4829 13.2693 13.8472V8.07594C13.2693 7.44023 12.752 6.92309 12.1161 6.92309H5.57691V1.5407C5.57691 1.11527 5.92328 0.769219 6.34902 0.769219H13.2692V5.76922C13.2692 5.98164 13.4414 6.15383 13.6538 6.15383H18.6538V18.4629Z" fill="white" stroke="white" stroke-width="0.2"/>
<path d="M5.17504 9.76115C5.04734 9.59514 4.88883 9.48732 4.69953 9.43775C4.57633 9.40471 4.31191 9.38818 3.90625 9.38818H2.83578V12.692H3.50285V11.4457H3.93781C4.23981 11.4457 4.47043 11.4299 4.62969 11.3984C4.74687 11.3728 4.86219 11.3206 4.97562 11.2417C5.08906 11.1629 5.18258 11.0543 5.25621 10.9161C5.32984 10.7779 5.36664 10.6074 5.36664 10.4045C5.3666 10.1416 5.30273 9.92717 5.17504 9.76115ZM4.60375 10.6705C4.55344 10.7441 4.48395 10.7982 4.39527 10.8327C4.3066 10.8673 4.13086 10.8846 3.86793 10.8846H3.50285V9.94709H3.82512C4.06551 9.94709 4.22551 9.95459 4.30512 9.96963C4.41328 9.98916 4.5027 10.038 4.57328 10.1161C4.64391 10.1942 4.67922 10.2934 4.67922 10.4136C4.67926 10.5112 4.65406 10.5969 4.60375 10.6705Z" fill="white" stroke="white" stroke-width="0.2"/>
<path d="M8.57345 10.2908C8.50134 10.0797 8.39615 9.90127 8.25794 9.75553C8.11974 9.60978 7.95368 9.50838 7.7599 9.45127C7.61568 9.4092 7.40607 9.38818 7.13115 9.38818H5.91193V12.692H7.1672C7.41361 12.692 7.6104 12.6687 7.75763 12.6221C7.95447 12.559 8.11072 12.4711 8.22638 12.3584C8.37962 12.2097 8.49755 12.0151 8.58021 11.7747C8.64783 11.5779 8.68161 11.3435 8.68161 11.0716C8.68161 10.7621 8.64556 10.5019 8.57345 10.2908ZM7.92439 11.6474C7.87931 11.7954 7.82111 11.9017 7.74974 11.9663C7.67837 12.0309 7.58861 12.0767 7.48044 12.1038C7.39783 12.1248 7.26333 12.1353 7.07704 12.1353H6.579V9.94709H6.87872C7.15064 9.94709 7.33322 9.9576 7.42634 9.97865C7.55103 10.0057 7.65396 10.0575 7.73509 10.1342C7.81622 10.2108 7.87931 10.3174 7.92439 10.4542C7.96947 10.5909 7.992 10.7869 7.992 11.0424C7.992 11.2977 7.96947 11.4994 7.92439 11.6474Z" fill="white" stroke="white" stroke-width="0.2"/>
<path d="M11.5166 9.94709V9.38818H9.25177V12.692H9.91884V11.288H11.298V10.7291H9.91884V9.94709H11.5166Z" fill="white" stroke="white" stroke-width="0.2"/>
</g>
<defs>
<clipPath id="clip0">
<rect width="20" height="20" fill="white"/>
</clipPath>
</defs>
</svg>
