<svg width="408" height="42" viewBox="0 0 408 42" fill="none" xmlns="http://www.w3.org/2000/svg">
<path d="M10.9718 18.376C10.9718 9.412 11.0078 9.376 12.9878 9.376H13.7078C13.9958 9.376 13.9958 9.052 13.7078 9.052C12.6998 9.052 10.1438 9.16 9.60383 9.16C9.09983 9.16 6.29183 9.052 5.28383 9.052C4.99583 9.052 4.99583 9.376 5.28383 9.376H6.21983C8.09183 9.376 8.16383 9.304 8.16383 18.376V24.676C8.16383 34.108 7.58783 36.484 6.07583 38.104C5.78783 38.428 5.10383 38.644 4.63583 38.644C4.31183 38.644 3.30383 38.608 2.40383 38.608C2.07983 38.608 1.82783 38.644 1.68383 38.68C0.675827 38.968 0.279827 39.976 0.279827 40.732C0.279827 41.092 0.675827 41.416 1.25183 41.56C1.46783 41.596 1.79183 41.632 2.07983 41.632C2.61983 41.632 4.38383 40.264 5.13983 39.544C9.35183 35.44 11.0078 33.676 11.0078 26.332C11.0078 25.324 10.9718 23.452 10.9718 22.516V18.376ZM21.7055 18.376C21.7055 9.52 21.4175 9.484 23.0735 9.484H27.6455C31.7495 9.52 34.5575 11.788 35.2415 15.82L35.4215 17.116C35.4935 17.332 35.8535 17.368 35.7815 17.116L35.6375 15.82C35.0975 11.932 34.7735 9.304 34.5935 9.196C34.3775 9.088 33.5495 9.052 32.9015 9.052C31.6055 9.052 20.7335 9.16 20.2295 9.16C19.6895 9.16 17.2415 9.052 16.2335 9.052C15.9455 9.052 15.9455 9.376 16.2335 9.376H16.8815C18.6455 9.376 18.9695 9.52 18.9695 18.376C18.9695 21.688 19.0055 26.476 18.8255 28.96C18.5375 33.496 18.2135 33.748 16.1255 33.748C15.7655 33.748 15.7655 34 16.1255 34L21.2015 33.892C21.2015 33.892 27.7895 34 30.3095 34C32.7935 34 34.9535 34 35.0975 33.856C35.3495 33.64 35.5655 32.272 36.2135 26.404L36.4295 24.46C36.4655 24.208 36.0695 24.208 36.0335 24.424L35.8175 26.332C35.3495 30.004 32.3975 33.604 28.2215 33.604C27.1055 33.604 22.4615 33.496 21.4175 33.496C21.5615 32.884 21.7055 30.976 21.7055 28.204V21.292H24.6935C29.1935 21.292 30.1655 22.984 30.1655 25.468V26.008C30.1655 26.296 30.5255 26.296 30.5255 26.008C30.5255 25.468 30.3455 21.58 30.3455 21.076C30.3455 20.536 30.5255 17.008 30.5255 15.964C30.5255 15.676 30.1655 15.676 30.1655 15.964V16.72C30.1655 19.204 29.1935 20.86 24.6935 20.86H21.7055V18.376ZM48.996 8.692C44.424 8.692 40.572 11.248 40.572 15.532C40.572 19.348 44.496 21.04 48.348 22.624C52.02 24.172 55.62 25.612 55.62 29.14C55.62 31.984 53.892 34 49.932 34C43.956 34 41.544 30.4 41.544 23.704C41.544 23.2 41.148 23.2 41.148 23.704C41.148 25.468 41.184 31.264 41.184 32.92C41.184 33.136 41.22 33.208 41.544 33.28C44.1 33.964 46.044 34.36 49.932 34.36C54.252 34.36 57.78 31.588 57.78 27.448C57.78 23.56 54 21.904 50.256 20.356C46.548 18.772 42.84 17.296 42.84 13.84C42.84 11.104 44.604 9.052 48.996 9.052C55.728 9.052 56.736 13.264 56.664 18.808C56.664 19.276 57.024 19.276 57.024 18.808C57.024 13.12 57.312 10.744 57.24 10.024C57.204 9.736 57.096 9.7 56.844 9.628C54.792 9.16 52.596 8.692 48.996 8.692ZM73.5317 9.016H76.4117C80.2997 9.052 81.6677 11.716 82.3877 16.396L82.7117 18.448C82.7837 18.664 83.1077 18.7 83.0357 18.448L82.7837 16.396C82.2437 12.508 82.5677 9.052 82.3517 8.944C82.1357 8.836 80.4437 8.692 77.9597 8.692H77.9237C74.2877 8.692 73.7117 8.764 72.1277 8.764C70.5437 8.764 67.1957 8.692 66.2957 8.692C63.8117 8.692 62.1197 8.836 61.9037 8.944C61.6877 9.052 62.0117 12.508 61.5077 16.396L61.2197 18.448C61.1477 18.7 61.5077 18.664 61.5797 18.448L61.8677 16.396C62.5877 11.716 63.9557 9.052 67.8077 9.052C68.6357 9.052 69.7517 9.052 70.7597 9.016V24.676C70.7597 33.532 70.5797 33.676 68.8157 33.676H68.1677C67.8797 33.676 67.8797 34 68.1677 34C69.1757 34 71.6237 33.892 72.1637 33.892C72.6677 33.892 75.1157 34 76.1237 34C76.4117 34 76.4117 33.676 76.1237 33.676H75.4757C73.7117 33.676 73.5317 33.532 73.5317 24.676V9.016ZM91.215 18.376C91.215 9.52 90.927 9.484 92.583 9.484H97.155C101.259 9.52 104.067 11.788 104.751 15.82L104.931 17.116C105.003 17.332 105.363 17.368 105.291 17.116L105.147 15.82C104.607 11.932 104.283 9.304 104.103 9.196C103.887 9.088 103.059 9.052 102.411 9.052C101.115 9.052 90.243 9.16 89.739 9.16C89.199 9.16 86.751 9.052 85.743 9.052C85.455 9.052 85.455 9.376 85.743 9.376H86.391C88.155 9.376 88.479 9.52 88.479 18.376C88.479 21.688 88.515 26.476 88.335 28.96C88.047 33.496 87.723 33.748 85.635 33.748C85.275 33.748 85.275 34 85.635 34L90.711 33.892C90.711 33.892 97.299 34 99.819 34C102.303 34 104.463 34 104.607 33.856C104.859 33.64 105.075 32.272 105.723 26.404L105.939 24.46C105.975 24.208 105.579 24.208 105.543 24.424L105.327 26.332C104.859 30.004 101.907 33.604 97.731 33.604C96.615 33.604 91.971 33.496 90.927 33.496C91.071 32.884 91.215 30.976 91.215 28.204V21.292H94.203C98.703 21.292 99.675 22.984 99.675 25.468V26.008C99.675 26.296 100.035 26.296 100.035 26.008C100.035 25.468 99.855 21.58 99.855 21.076C99.855 20.536 100.035 17.008 100.035 15.964C100.035 15.676 99.675 15.676 99.675 15.964V16.72C99.675 19.204 98.703 20.86 94.203 20.86H91.215V18.376ZM118.506 8.692C113.934 8.692 110.082 11.248 110.082 15.532C110.082 19.348 114.006 21.04 117.858 22.624C121.53 24.172 125.13 25.612 125.13 29.14C125.13 31.984 123.402 34 119.442 34C113.466 34 111.054 30.4 111.054 23.704C111.054 23.2 110.658 23.2 110.658 23.704C110.658 25.468 110.694 31.264 110.694 32.92C110.694 33.136 110.73 33.208 111.054 33.28C113.61 33.964 115.554 34.36 119.442 34.36C123.762 34.36 127.29 31.588 127.29 27.448C127.29 23.56 123.51 21.904 119.766 20.356C116.058 18.772 112.35 17.296 112.35 13.84C112.35 11.104 114.114 9.052 118.506 9.052C125.238 9.052 126.246 13.264 126.174 18.808C126.174 19.276 126.534 19.276 126.534 18.808C126.534 13.12 126.822 10.744 126.75 10.024C126.714 9.736 126.606 9.7 126.354 9.628C124.302 9.16 122.106 8.692 118.506 8.692ZM117.354 6.712C119.154 4.804 122.214 2.752 122.682 2.32C122.898 2.14 123.114 1.888 123.114 1.708C123.114 1.384 123.114 1.132 123.006 1.024C122.934 0.951998 122.646 0.915999 122.358 0.915999C122.034 0.915999 121.674 0.951998 121.494 1.132C121.098 1.528 119.046 4.732 117.174 6.496C117.138 6.532 117.066 6.604 117.066 6.64C117.066 6.712 117.138 6.784 117.21 6.784C117.282 6.784 117.318 6.748 117.354 6.712ZM143.531 21.544C143.531 28.924 149.327 34.36 156.095 34.36C162.863 34.36 168.983 28.924 168.983 21.544C168.983 14.128 163.079 8.692 156.311 8.692C149.543 8.692 143.531 14.02 143.531 21.544ZM146.771 21.544C146.771 14.128 150.551 9.052 156.455 9.052C162.323 9.052 165.779 14.128 165.779 21.544C165.779 28.924 161.819 34 155.951 34C150.083 34 146.771 28.924 146.771 21.544ZM192.582 34C192.87 34 192.87 33.676 192.582 33.676H191.79C190.026 33.676 189.846 33.532 189.846 24.676V23.92L192.294 21.292C193.374 20.356 193.878 20.32 194.562 20.32C196.866 20.32 198.27 24.676 199.386 27.844C200.43 30.688 201.186 32.416 201.87 33.28C202.41 33.928 202.878 34.144 203.67 34.144C204.21 34.144 205.002 34 206.262 34H207.486C207.99 34 208.026 33.676 207.558 33.676H207.126C205.254 33.676 204.354 32.488 202.05 26.692C200.682 23.488 200.178 21.22 197.946 20.068C197.334 19.744 196.902 19.6 195.714 19.6C194.706 19.6 193.878 19.924 193.194 20.356L196.65 16.648C202.266 10.708 203.49 9.376 206.01 9.376H206.082C206.298 9.376 206.334 9.052 206.082 9.052C205.182 9.052 202.734 9.124 202.266 9.124C201.69 9.124 198.954 9.052 198.342 9.052C198.054 9.052 197.946 9.16 197.946 9.268C197.946 9.376 198.09 9.484 198.27 9.484C198.414 9.484 198.81 9.34 199.098 9.34C199.998 9.34 200.466 9.664 200.502 10.24C200.502 11.248 199.134 13.408 196.326 16.432L189.846 23.416V18.376C189.846 9.52 190.062 9.376 191.826 9.376H192.474C192.762 9.376 192.762 9.052 192.474 9.052C191.466 9.052 189.09 9.16 188.586 9.16C188.046 9.16 185.526 9.052 184.518 9.052C184.23 9.052 184.23 9.376 184.518 9.376H185.166C186.93 9.376 187.11 9.52 187.11 18.376V23.164C187.11 24.82 187.074 28.384 187.002 30.364C186.93 32.308 186.786 33.1 186.282 33.604C186.066 33.64 185.526 33.676 184.626 33.676C184.338 33.676 184.338 34 184.626 34C184.914 34 188.19 33.928 188.73 33.928C189.27 33.928 192.294 34 192.582 34ZM213.713 33.928C214.217 33.928 216.629 34 217.637 34C217.925 34 217.925 33.676 217.637 33.676H216.917C215.153 33.676 214.973 33.532 214.973 24.676V21.04H216.449C220.049 21.112 221.093 21.616 223.793 27.844C225.017 30.724 226.025 32.416 226.781 33.28C227.357 33.928 227.825 34.144 228.617 34.144C229.157 34.144 229.841 34 231.101 34H232.397C232.757 34 232.721 33.676 232.397 33.676H232.145C229.949 33.676 229.265 33.028 226.277 26.692C223.937 21.976 222.677 20.86 219.617 20.788C223.505 20.104 227.285 18.016 227.285 14.956C227.285 11.14 224.261 9.052 218.069 9.052C217.457 9.052 214.145 9.16 213.641 9.16C213.101 9.16 210.653 9.052 209.645 9.052C209.357 9.052 209.357 9.376 209.645 9.376H210.293C212.057 9.376 212.237 9.52 212.237 18.376V23.164C212.237 24.82 212.201 28.384 212.129 30.364C212.057 32.308 211.913 33.1 211.409 33.604C211.193 33.64 210.653 33.676 209.753 33.676C209.465 33.676 209.465 34 209.753 34C210.041 34 213.173 33.928 213.713 33.928ZM214.973 14.812C214.973 9.52 215.045 9.376 216.377 9.376H217.781C222.281 9.376 224.081 11.212 224.081 14.956C224.081 19.024 220.769 20.644 217.997 20.644C216.593 20.644 215.657 20.644 214.973 20.68V14.812ZM233.069 21.544C233.069 28.924 238.865 34.36 245.633 34.36C252.401 34.36 258.521 28.924 258.521 21.544C258.521 14.128 252.617 8.692 245.849 8.692C239.081 8.692 233.069 14.02 233.069 21.544ZM236.309 21.544C236.309 14.128 240.089 9.052 245.993 9.052C251.861 9.052 255.317 14.128 255.317 21.544C255.317 28.924 251.357 34 245.489 34C239.621 34 236.309 28.924 236.309 21.544ZM269.931 34C270.219 34 270.219 33.676 269.931 33.676H269.139C267.375 33.676 267.195 33.532 267.195 24.676V23.92L269.643 21.292C270.723 20.356 271.227 20.32 271.911 20.32C274.215 20.32 275.619 24.676 276.735 27.844C277.779 30.688 278.535 32.416 279.219 33.28C279.759 33.928 280.227 34.144 281.019 34.144C281.559 34.144 282.351 34 283.611 34H284.835C285.339 34 285.375 33.676 284.907 33.676H284.475C282.603 33.676 281.703 32.488 279.399 26.692C278.031 23.488 277.527 21.22 275.295 20.068C274.683 19.744 274.251 19.6 273.063 19.6C272.055 19.6 271.227 19.924 270.543 20.356L273.999 16.648C279.615 10.708 280.839 9.376 283.359 9.376H283.431C283.647 9.376 283.683 9.052 283.431 9.052C282.531 9.052 280.083 9.124 279.615 9.124C279.039 9.124 276.303 9.052 275.691 9.052C275.403 9.052 275.295 9.16 275.295 9.268C275.295 9.376 275.439 9.484 275.619 9.484C275.763 9.484 276.159 9.34 276.447 9.34C277.347 9.34 277.815 9.664 277.851 10.24C277.851 11.248 276.483 13.408 273.675 16.432L267.195 23.416V18.376C267.195 9.52 267.411 9.376 269.175 9.376H269.823C270.111 9.376 270.111 9.052 269.823 9.052C268.815 9.052 266.439 9.16 265.935 9.16C265.395 9.16 262.875 9.052 261.867 9.052C261.579 9.052 261.579 9.376 261.867 9.376H262.515C264.279 9.376 264.459 9.52 264.459 18.376V23.164C264.459 24.82 264.423 28.384 264.351 30.364C264.279 32.308 264.135 33.1 263.631 33.604C263.415 33.64 262.875 33.676 261.975 33.676C261.687 33.676 261.687 34 261.975 34C262.263 34 265.539 33.928 266.079 33.928C266.619 33.928 269.643 34 269.931 34ZM320.136 21.544C320.136 28.924 316.32 33.64 309.804 33.64C308.184 33.64 305.232 33.496 304.368 33.496C304.512 32.884 304.656 30.976 304.656 28.204V18.376C304.656 9.556 304.692 9.376 307.14 9.376H309.516C315.96 9.376 320.136 14.128 320.136 21.544ZM323.34 21.544C323.34 14.02 317.004 9.052 309.588 9.052C308.544 9.052 304.26 9.124 303.72 9.124C303.18 9.124 299.616 9.052 299.328 9.052C299.04 9.052 299.04 9.376 299.328 9.376C301.632 9.376 301.704 9.412 301.704 12.652C301.704 14.632 301.812 18.196 301.812 19.852C301.812 21.508 301.956 26.476 301.776 28.96C301.488 33.496 301.164 33.748 299.076 33.748C298.716 33.748 298.716 34 299.076 34L304.152 33.892C304.152 33.892 308.508 34 309.732 34C317.472 34 323.34 28.924 323.34 21.544ZM341.105 25.072C344.525 33.064 344.237 33.676 342.689 33.676H341.933C341.645 33.676 341.753 34 342.041 34C343.085 34 345.857 33.892 346.397 33.892C346.937 33.892 348.989 34 350.033 34C350.177 34 350.249 33.928 350.249 33.82C350.249 33.748 350.177 33.676 349.997 33.676H349.709C347.981 33.676 347.441 33.1 343.877 24.676L337.325 9.052C337.289 8.98 337.181 8.944 336.965 8.944H336.605C336.425 8.944 336.389 8.98 336.353 9.052L329.405 26.404C328.829 27.916 327.929 29.968 327.029 31.516C326.273 32.92 325.445 33.676 324.437 33.676H324.293C324.185 33.676 324.077 33.748 324.077 33.82C324.077 33.928 324.149 34 324.293 34C325.193 34 326.813 33.928 327.281 33.928C327.893 33.928 330.737 34 331.385 34C331.745 34 331.817 33.892 331.817 33.784C331.817 33.676 331.745 33.604 331.565 33.604C331.421 33.604 330.845 33.712 330.557 33.712C329.261 33.712 328.541 33.1 328.541 31.948C328.541 30.364 329.225 28.096 329.837 26.584L330.449 25.072C331.529 25.108 335.129 25.18 336.893 25.18L341.105 25.072ZM340.925 24.676V24.712H336.677L330.557 24.748L335.561 12.112L340.925 24.676ZM357.195 18.376C357.195 9.556 357.231 9.376 359.679 9.376H360.687C360.975 9.376 360.975 9.052 360.687 9.052C359.643 9.052 356.799 9.124 356.259 9.124C355.719 9.124 352.155 9.052 351.867 9.052C351.579 9.052 351.579 9.376 351.867 9.376C354.171 9.376 354.243 9.412 354.243 12.652C354.243 14.632 354.351 18.196 354.351 19.852C354.351 21.508 354.495 26.476 354.315 28.96C354.027 33.496 353.703 33.748 351.615 33.748C351.255 33.748 351.255 34 351.615 34L356.691 33.892C356.691 33.892 363.135 34 365.655 34C368.139 34 370.299 33.928 370.443 33.784C370.695 33.568 370.983 31.444 371.631 25.432L371.991 22.12C372.027 21.868 371.631 21.868 371.595 22.084L371.235 25.36C370.767 29.032 367.959 33.604 363.783 33.604C362.667 33.604 357.951 33.496 356.907 33.496C357.051 32.884 357.195 30.976 357.195 28.204V18.376ZM380.212 18.376C380.212 9.52 379.924 9.484 381.58 9.484H386.152C390.256 9.52 393.064 11.788 393.748 15.82L393.928 17.116C394 17.332 394.36 17.368 394.288 17.116L394.144 15.82C393.604 11.932 393.28 9.304 393.1 9.196C392.884 9.088 392.056 9.052 391.408 9.052C390.112 9.052 379.24 9.16 378.736 9.16C378.196 9.16 375.748 9.052 374.74 9.052C374.452 9.052 374.452 9.376 374.74 9.376H375.388C377.152 9.376 377.476 9.52 377.476 18.376C377.476 21.688 377.512 26.476 377.332 28.96C377.044 33.496 376.72 33.748 374.632 33.748C374.272 33.748 374.272 34 374.632 34L379.708 33.892C379.708 33.892 386.296 34 388.816 34C391.3 34 393.46 34 393.604 33.856C393.856 33.64 394.072 32.272 394.72 26.404L394.936 24.46C394.972 24.208 394.576 24.208 394.54 24.424L394.324 26.332C393.856 30.004 390.904 33.604 386.728 33.604C385.612 33.604 380.968 33.496 379.924 33.496C380.068 32.884 380.212 30.976 380.212 28.204V21.292H383.2C387.7 21.292 388.672 22.984 388.672 25.468V26.008C388.672 26.296 389.032 26.296 389.032 26.008C389.032 25.468 388.852 21.58 388.852 21.076C388.852 20.536 389.032 17.008 389.032 15.964C389.032 15.676 388.672 15.676 388.672 15.964V16.72C388.672 19.204 387.7 20.86 383.2 20.86H380.212V18.376ZM404.299 18.376C404.299 9.412 404.335 9.376 406.315 9.376H407.035C407.323 9.376 407.323 9.052 407.035 9.052C406.027 9.052 403.471 9.16 402.931 9.16C402.427 9.16 399.619 9.052 398.611 9.052C398.323 9.052 398.323 9.376 398.611 9.376H399.547C401.419 9.376 401.491 9.304 401.491 18.376V24.676C401.491 34.108 400.915 36.484 399.403 38.104C399.115 38.428 398.431 38.644 397.963 38.644C397.639 38.644 396.631 38.608 395.731 38.608C395.407 38.608 395.155 38.644 395.011 38.68C394.003 38.968 393.607 39.976 393.607 40.732C393.607 41.092 394.003 41.416 394.579 41.56C394.795 41.596 395.119 41.632 395.407 41.632C395.947 41.632 397.711 40.264 398.467 39.544C402.679 35.44 404.335 33.676 404.335 26.332C404.335 25.324 404.299 23.452 404.299 22.516V18.376Z" fill="black"/>
</svg>
