<svg width="249" height="21" viewBox="0 0 249 21" fill="none" xmlns="http://www.w3.org/2000/svg">
<g clip-path="url(#clip0)">
<path d="M26.6456 3.59825H15.1173V20.6747H11.5283V3.59825H0V0H26.6456V3.59825Z" fill="black"/>
<path d="M57.4239 0V20.6747H53.8349V11.9535H34.1498V20.6747H30.5608V0H34.1498V8.35526H53.8349V0H57.4239Z" fill="black"/>
<path d="M66.3964 3.59825V8.35526H84.3413V11.8925H66.3964V17.0764H84.4501V20.6747H62.8074V0H84.4501V3.59825H66.3964Z" fill="black"/>
<path d="M180.7 17.0764V20.6747H161.178V0H164.767V17.0764H180.7Z" fill="black"/>
<path d="M184.616 0H188.205V20.6747H184.616V0Z" fill="black"/>
<path d="M217.732 20.6747L196.96 4.51306V20.6747H193.588V0H197.395L218.602 16.4666V0H221.974V20.6747H217.732Z" fill="black"/>
<path d="M230.946 3.59825V8.35526H248.891V11.8925H230.946V17.0764H249V20.6747H227.357V0H249V3.59825H230.946Z" fill="black"/>
<path d="M99.2955 12.6244H98.5886L98.0448 11.4656H95.8696L95.3258 12.6244H94.6733L96.7397 8.05034H97.1203L99.2955 12.6244ZM97.7729 10.8558L96.9572 9.08712L96.1415 10.8558H97.7729Z" fill="black"/>
<path d="M105.332 9.33107C105.332 9.697 105.223 10.0019 105.005 10.2459C104.788 10.4898 104.461 10.6118 104.081 10.6118H101.688V12.6244H101.036V8.05034H103.972C104.407 8.05034 104.733 8.17231 104.951 8.35528C105.223 8.59922 105.332 8.90416 105.332 9.33107ZM104.679 9.33107C104.679 8.90416 104.461 8.7212 104.026 8.7212H101.688V9.94095H104.026C104.461 9.94095 104.679 9.75798 104.679 9.33107Z" fill="black"/>
<path d="M111.204 12.6244H110.498L109.954 11.4656H107.779L107.235 12.6244H106.582L108.649 8.05034H109.029L111.204 12.6244ZM109.736 10.8558L108.921 9.08712L108.105 10.8558H109.736Z" fill="black"/>
<path d="M117.24 12.6244H116.534L115.392 10.6118H113.651V12.6244H112.999V8.05034H115.827C116.262 8.05034 116.588 8.17231 116.805 8.35528C117.023 8.59922 117.132 8.90416 117.132 9.27008C117.132 9.57502 117.023 9.87996 116.86 10.1239C116.697 10.3679 116.425 10.4898 116.153 10.5508L117.24 12.6244ZM116.479 9.33107C116.479 8.90416 116.262 8.7212 115.827 8.7212H113.651V9.94095H115.827C116.262 9.94095 116.479 9.75798 116.479 9.33107Z" fill="black"/>
<path d="M122.787 8.66021H121.047V12.6244H120.394V8.66021H118.654V8.05034H122.733V8.66021H122.787Z" fill="black"/>
<path d="M128.986 12.6244H128.334V9.33107L126.757 11.8925L125.18 9.33107V12.6244H124.527V8.05034H125.071L126.757 10.7338L128.442 8.05034H128.986V12.6244Z" fill="black"/>
<path d="M135.566 12.6244H131.596V8.05034H135.403V8.7212H132.195V9.87996H134.261V10.5508H132.195V12.0145H135.566V12.6244Z" fill="black"/>
<path d="M141.221 12.6244H140.895L138.285 9.39206V12.6244H137.632V8.05034H137.959L140.569 11.2827V8.05034H141.221V12.6244Z" fill="black"/>
<path d="M147.094 8.66021H145.354V12.6244H144.702V8.66021H143.016V8.05034H147.094V8.66021Z" fill="black"/>
<path d="M152.641 11.2827C152.641 11.7096 152.478 12.0755 152.152 12.3194C151.825 12.6244 151.39 12.7464 150.846 12.7464C150.031 12.7464 149.269 12.5024 148.617 12.0145L148.943 11.4046C149.541 11.8315 150.14 12.0755 150.792 12.0755C151.173 12.0755 151.445 12.0145 151.662 11.8315C151.88 11.6486 151.988 11.4656 151.988 11.2217C151.988 10.7338 151.553 10.4288 150.738 10.4288C150.14 10.4288 149.705 10.3679 149.487 10.2459C148.998 10.0629 148.78 9.75798 148.78 9.20909C148.78 8.84317 148.943 8.47725 149.215 8.29428C149.541 8.05033 149.922 7.92836 150.466 7.92836C151.173 7.92836 151.825 8.17231 152.423 8.59922L152.097 9.20909C151.553 8.78218 151.01 8.59922 150.411 8.59922C150.085 8.59922 149.868 8.66021 149.65 8.78218C149.487 8.90416 149.378 9.08712 149.378 9.27008C149.378 9.45304 149.487 9.636 149.705 9.69699C149.922 9.75798 150.248 9.81897 150.683 9.81897C151.988 9.75798 152.641 10.2459 152.641 11.2827Z" fill="black"/>
</g>
<defs>
<clipPath id="clip0">
<rect width="249" height="20.6747" fill="white"/>
</clipPath>
</defs>
</svg>
