<svg width="249" height="18" viewBox="0 0 249 18" fill="none" xmlns="http://www.w3.org/2000/svg">
<path d="M26.6456 3.13274H15.1173V18H11.5283V3.13274H0V0H26.6456V3.13274Z" fill="black"/>
<path d="M57.4239 0V18H53.8349V10.4071H34.1498V18H30.5608V0H34.1498V7.27434H53.8349V0H57.4239Z" fill="black"/>
<path d="M66.3964 3.13274V7.27434H84.3413V10.354H66.3964V14.8673H84.4501V18H62.8074V0H84.4501V3.13274H66.3964Z" fill="black"/>
<path d="M180.7 14.8673V18H161.178V0H164.767V14.8673H180.7Z" fill="black"/>
<path d="M184.616 0H188.205V18H184.616V0Z" fill="black"/>
<path d="M217.732 18L196.96 3.9292V18H193.588V0H197.395L218.602 14.3363V0H221.974V18H217.732Z" fill="black"/>
<path d="M230.946 3.13274V7.27434H248.891V10.354H230.946V14.8673H249V18H227.357V0H249V3.13274H230.946Z" fill="black"/>
<path d="M99.2955 10.9911H98.5885L98.0448 9.98224H95.8696L95.3258 10.9911H94.6733L96.7397 7.00879H97.1203L99.2955 10.9911ZM97.7729 9.45127L96.9572 7.91144L96.1415 9.45127H97.7729Z" fill="black"/>
<path d="M105.332 8.12383C105.332 8.44242 105.223 8.7079 105.005 8.92029C104.788 9.13268 104.461 9.23888 104.081 9.23888H101.688V10.9911H101.036V7.00879H103.972C104.407 7.00879 104.733 7.11498 104.951 7.27428C105.223 7.48667 105.332 7.75215 105.332 8.12383ZM104.679 8.12383C104.679 7.75215 104.461 7.59286 104.026 7.59286H101.688V8.65481H104.026C104.461 8.65481 104.679 8.49551 104.679 8.12383Z" fill="black"/>
<path d="M111.204 10.9911H110.497L109.954 9.98224H107.779L107.235 10.9911H106.582L108.649 7.00879H109.029L111.204 10.9911ZM109.736 9.45127L108.921 7.91144L108.105 9.45127H109.736Z" fill="black"/>
<path d="M117.24 10.9911H116.534L115.392 9.23888H113.651V10.9911H112.999V7.00879H115.827C116.262 7.00879 116.588 7.11498 116.805 7.27428C117.023 7.48667 117.132 7.75215 117.132 8.07074C117.132 8.33622 117.023 8.60171 116.86 8.8141C116.697 9.02649 116.425 9.13268 116.153 9.18578L117.24 10.9911ZM116.479 8.12383C116.479 7.75215 116.262 7.59286 115.827 7.59286H113.651V8.65481H115.827C116.262 8.65481 116.479 8.49551 116.479 8.12383Z" fill="black"/>
<path d="M122.787 7.53976H121.047V10.9911H120.394V7.53976H118.654V7.00879H122.733V7.53976H122.787Z" fill="black"/>
<path d="M128.986 10.9911H128.334V8.12383L126.757 10.3539L125.18 8.12383V10.9911H124.527V7.00879H125.071L126.757 9.34507L128.442 7.00879H128.986V10.9911Z" fill="black"/>
<path d="M135.566 10.9911H131.596V7.00879H135.403V7.59286H132.195V8.60171H134.261V9.18578H132.195V10.4601H135.566V10.9911Z" fill="black"/>
<path d="M141.221 10.9911H140.895L138.285 8.17693V10.9911H137.632V7.00879H137.959L140.569 9.82295V7.00879H141.221V10.9911Z" fill="black"/>
<path d="M147.094 7.53976H145.354V10.9911H144.702V7.53976H143.016V7.00879H147.094V7.53976Z" fill="black"/>
<path d="M152.641 9.82319C152.641 10.1949 152.478 10.5135 152.152 10.7258C151.825 10.9913 151.39 11.0975 150.846 11.0975C150.031 11.0975 149.269 10.8851 148.617 10.4604L148.943 9.92938C149.541 10.3011 150.14 10.5135 150.792 10.5135C151.173 10.5135 151.445 10.4604 151.662 10.3011C151.88 10.1418 151.988 9.98248 151.988 9.77009C151.988 9.34531 151.553 9.07982 150.738 9.07982C150.14 9.07982 149.705 9.02673 149.487 8.92053C148.998 8.76124 148.78 8.49575 148.78 8.01788C148.78 7.69929 148.943 7.38071 149.215 7.22142C149.541 7.00903 149.922 6.90283 150.466 6.90283C151.173 6.90283 151.825 7.11522 152.423 7.4869L152.097 8.01788C151.553 7.6462 151.01 7.4869 150.411 7.4869C150.085 7.4869 149.868 7.54 149.65 7.64619C149.487 7.75239 149.378 7.91168 149.378 8.07097C149.378 8.23027 149.487 8.38956 149.705 8.44266C149.922 8.49575 150.248 8.54885 150.683 8.54885C151.988 8.49575 152.641 8.92053 152.641 9.82319Z" fill="black"/>
</svg>
