<svg xmlns="http://www.w3.org/2000/svg" viewBox="0 0 170.41 12.58"><defs><style>.cls-1{fill:#fff;}</style></defs><g id="Warstwa_2" data-name="Warstwa 2"><g id="Warstwa_1-2" data-name="Warstwa 1"><path class="cls-1" d="M13.59,12.27H11.51l-1.6-3H3.52l-1.6,3H0L6.07.32H7.19ZM9.11,7.65,6.71,3,4.32,7.65Z"/><path class="cls-1" d="M31.33,3.66a3.22,3.22,0,0,1-1,2.39,3.76,3.76,0,0,1-2.72,1h-7v5.26H18.7V.32h8.64a4.79,4.79,0,0,1,2.87.79A3,3,0,0,1,31.33,3.66Zm-1.92,0c0-1.11-.64-1.59-1.91-1.59H20.62V5.26H27.5C28.77,5.26,29.41,4.78,29.41,3.66Z"/><path class="cls-1" d="M48.6,12.27H46.52l-1.6-3H38.53l-1.6,3H35L41.08.32H42.2ZM44.28,7.65,41.88,3,39.49,7.65Z"/><path class="cls-1" d="M66.34,12.27H64.26L60.91,7H55.79v5.26H53.87V.32h8.32a4.81,4.81,0,0,1,2.87.79A3.25,3.25,0,0,1,66,3.5a3.77,3.77,0,0,1-.8,2.23,3.35,3.35,0,0,1-2.08,1.12ZM64.1,3.66c0-1.11-.64-1.59-1.91-1.59h-6.4V5.26h6.4C63.46,5.26,64.1,4.78,64.1,3.66Z"/><path class="cls-1" d="M82.65,1.91H77.53V12.27H75.61V1.91H70.5V.32h12V1.91Z"/><path class="cls-1" d="M100.87,12.27H99V3.66l-4.63,6.69L89.68,3.66v8.61H87.76V.32h1.6l5,7,5-7h1.6Z"/><path class="cls-1" d="M120.22,12.27H108.55V.32h11.19V2.07H110.3v3h6.08V6.85H110.3v3.82h9.92Z"/><path class="cls-1" d="M136.84,12.27h-1l-7.67-8.45v8.45h-1.92V.32h1l7.67,8.44V.32h1.92Z"/><path class="cls-1" d="M154.11,1.91H149V12.27h-1.92V1.91h-4.95V.32h12Z"/><path class="cls-1" d="M170.41,8.76A3.13,3.13,0,0,1,169,11.47a5.77,5.77,0,0,1-3.83,1.11,11.67,11.67,0,0,1-6.56-1.91l1-1.59A10,10,0,0,0,165,10.83a4,4,0,0,0,2.55-.64,1.92,1.92,0,0,0,1-1.59c0-1.27-1.28-2.07-3.67-2.07a9.56,9.56,0,0,1-3.68-.48,2.57,2.57,0,0,1-2.08-2.7A2.79,2.79,0,0,1,160.34,1,6.27,6.27,0,0,1,164,0a10.67,10.67,0,0,1,5.75,1.75l-1,1.6a8.29,8.29,0,0,0-4.95-1.6,4.65,4.65,0,0,0-2.24.48,1.63,1.63,0,0,0-.8,1.27,1.17,1.17,0,0,0,1,1.12,11.92,11.92,0,0,0,2.88.32Q170.41,4.7,170.41,8.76Z"/></g></g></svg>