<svg width="732" height="54" viewBox="0 0 732 54" fill="none" xmlns="http://www.w3.org/2000/svg">
<path d="M78.3315 9.39823H44.4411V54H33.8904V9.39823H0V0H78.3315V9.39823Z" fill="white"/>
<path d="M168.812 0V54H158.262V31.2212H100.392V54H89.8414V0H100.392V21.823H158.262V0H168.812Z" fill="white"/>
<path d="M195.189 9.39823V21.823H247.943V31.0619H195.189V44.6018H248.263V54H184.639V0H248.263V9.39823H195.189Z" fill="white"/>
<path d="M531.215 44.6018V54H473.826V0H484.376V44.6018H531.215Z" fill="white"/>
<path d="M542.725 0H553.276V54H542.725V0Z" fill="white"/>
<path d="M640.08 54L579.014 11.7876V54H569.102V0H580.293L642.638 43.0089V0H652.549V54H640.08Z" fill="white"/>
<path d="M678.926 9.39823V21.823H731.68V31.0619H678.926V44.6018H732V54H668.375V0H732V9.39823H678.926Z" fill="white"/>
<path d="M291.905 32.9734H289.827L288.228 29.9469H281.834L280.235 32.9734H278.317L284.391 21.0265H285.51L291.905 32.9734ZM287.429 28.354L285.031 23.7345L282.633 28.354H287.429Z" fill="white"/>
<path d="M309.649 24.3717C309.649 25.3274 309.33 26.1239 308.69 26.761C308.051 27.3982 307.091 27.7168 305.972 27.7168H298.939V32.9734H297.02V21.0265H305.653C306.932 21.0265 307.891 21.3451 308.53 21.823C309.33 22.4602 309.649 23.2566 309.649 24.3717ZM307.731 24.3717C307.731 23.2566 307.091 22.7787 305.813 22.7787H298.939V25.9646H305.813C307.091 25.9646 307.731 25.4867 307.731 24.3717Z" fill="white"/>
<path d="M326.914 32.9734H324.836L323.237 29.9469H316.843L315.244 32.9734H313.326L319.401 21.0265H320.52L326.914 32.9734ZM322.598 28.354L320.2 23.7345L317.802 28.354H322.598Z" fill="white"/>
<path d="M344.659 32.9734H342.581L339.223 27.7168H334.108V32.9734H332.19V21.0265H340.502C341.781 21.0265 342.74 21.3451 343.38 21.823C344.019 22.4602 344.339 23.2566 344.339 24.2124C344.339 25.0088 344.019 25.8053 343.54 26.4425C343.06 27.0796 342.261 27.3982 341.461 27.5575L344.659 32.9734ZM342.421 24.3717C342.421 23.2566 341.781 22.7787 340.502 22.7787H334.108V25.9646H340.502C341.781 25.9646 342.421 25.4867 342.421 24.3717Z" fill="white"/>
<path d="M360.964 22.6194H355.849V32.9734H353.93V22.6194H348.815V21.0265H360.804V22.6194H360.964Z" fill="white"/>
<path d="M379.188 32.9734H377.27V24.3717L372.634 31.0619L367.998 24.3717V32.9734H366.08V21.0265H367.678L372.634 28.0354L377.59 21.0265H379.188V32.9734Z" fill="white"/>
<path d="M398.532 32.9734H386.862V21.0265H398.052V22.7787H388.62V25.8053H394.695V27.5575H388.62V31.3805H398.532V32.9734Z" fill="white"/>
<path d="M415.157 32.9734H414.198L406.525 24.5309V32.9734H404.606V21.0265H405.565L413.239 29.469V21.0265H415.157V32.9734Z" fill="white"/>
<path d="M432.422 22.6194H427.306V32.9734H425.388V22.6194H420.432V21.0265H432.422V22.6194Z" fill="white"/>
<path d="M448.728 29.469C448.728 30.5841 448.248 31.5398 447.289 32.177C446.33 32.9735 445.051 33.292 443.452 33.292C441.054 33.292 438.816 32.6549 436.898 31.3805L437.857 29.7876C439.616 30.9027 441.374 31.5398 443.292 31.5398C444.411 31.5398 445.211 31.3805 445.85 30.9027C446.49 30.4248 446.809 29.9469 446.809 29.3097C446.809 28.0354 445.53 27.2389 443.133 27.2389C441.374 27.2389 440.095 27.0796 439.456 26.7611C438.017 26.2832 437.378 25.4867 437.378 24.0531C437.378 23.0973 437.857 22.1416 438.656 21.6637C439.616 21.0266 440.735 20.708 442.333 20.708C444.411 20.708 446.33 21.3451 448.088 22.4602L447.129 24.0531C445.53 22.9381 443.932 22.4602 442.173 22.4602C441.214 22.4602 440.575 22.6195 439.935 22.9381C439.456 23.2566 439.136 23.7345 439.136 24.2124C439.136 24.6903 439.456 25.1681 440.095 25.3274C440.735 25.4867 441.694 25.646 442.973 25.646C446.809 25.4867 448.728 26.7611 448.728 29.469Z" fill="white"/>
</svg>
